<svg xmlns="http://www.w3.org/2000/svg" width="3301.522" height="733.73" viewBox="0 0 3301.522 733.73">
  <g id="traveloka" transform="translate(-4616.87 -4663.502)">
    <path id="Path_8" data-name="Path 8" d="M97.741,1116.611c-28.63-19.957-51.614-55.636-51.614-118.949V829.946H0V765.6H46.827V666.171h71.544V765.6h88.76v64.349h-88.76V992.794c0,29.391,7.229,48.111,17.379,59.889,14.6,16.944,36.049,20.222,49.936,20.222,2.391,0,4.786,0,6.689-.126h.048a44.155,44.155,0,0,0,6.682-.927l15.015-3.322v68.208l-10.381,1.719c-2.7.448-6.274.886-10.514,1.175-3.594.245-7.565.4-11.733.4-21.958,0-55.378-3.648-83.749-23.426Zm222.825,20.647H260.688V762.815h71.544v50.7a148.178,148.178,0,0,1,23.51-25.589c20.786-17.722,46.233-28.582,75.253-28.582a104.292,104.292,0,0,1,11.305.645,80.676,80.676,0,0,1,10.51,1.824l9.416,2.344v73.307L446,832.1c-.149-.048-1.763-.2-4.141-.387-2.843-.224-6.271-.377-9.467-.377-30.512,0-53.217,15.31-69.064,37.676l-.024-.017c-20.953,29.6-30.376,71.333-30.376,107.81v160.453H320.566Zm192.415-24.068c-22.42-19.285-37.041-46.763-37.041-82.152,0-64.05,40.376-97.806,89.976-115.5C612.825,898.807,667.747,897,702.162,897h8.584c-.414-26.632-7.151-44.816-18.3-56.441-12.98-13.537-32.774-18.955-55.986-18.955a152.025,152.025,0,0,0-48.013,7.962,165.049,165.049,0,0,0-44.684,23L532.874,860.5l-6.923-11.557-21.663-36.154L498.9,803.8l7.99-6.757c15.235-12.881,36.2-23.616,59.576-31.062a243.936,243.936,0,0,1,72.79-11.516c45.852,0,81.752,13,106.431,38.206,24.465,24.985,37.319,61.356,37.319,108.343v236.239H712.859v-39.507a144.937,144.937,0,0,1-28.3,24.567,139.454,139.454,0,0,1-77.448,23.283c-34.493,0-69.149-10.921-94.13-32.411Zm89.745-143.675c-29.842,8.8-53.842,25.491-53.842,57.348a51.114,51.114,0,0,0,18.486,38.946c11.01,9.308,27.033,15.439,48.125,15.439,27.366,0,49.586-13.126,65.586-32.55,19.23-23.358,29.683-55.632,29.683-85.8v-3.628h-7.9c-26.575,0-67.08.5-100.133,10.245Zm419.523,167.743h-60.14l-3.071-7.918L823.455,779.62l-6.512-16.8h77.529l3.034,8.013,97.143,256.553.051.146q.673,1.865,1.335,3.825c.445-1.3.9-2.582,1.345-3.825l.048-.146,97.143-256.553,3.037-8.013h76.8l-6.431,16.754-134.184,349.719-3.054,7.969h-8.486Zm218.069-47.181c-34.771-34.462-55.707-82.869-55.707-139.691,0-58.792,19.753-106.427,51.651-140.074,34.221-36.093,82.227-55.843,134.728-55.843,49.885,0,88.352,18.313,115.1,47.707,29.241,32.139,44.028,77.315,44.028,125.957,0,3.859-.193,8.163-.486,12.6-.221,3.373-.608,7.772-1.009,12.158l-1.026,11.251H1259.654c3.2,33.307,15.82,59.739,34.435,78.64,22.57,22.913,54.233,34.992,88.783,34.992a144.756,144.756,0,0,0,52.222-10.177,153.244,153.244,0,0,0,46.447-28.351l11.135-10,7.7,12.848,21.669,36.154,5.19,8.662-7.463,6.787c-17.484,15.918-39.734,28.868-63.707,37.843-24.122,9.033-50.024,14.063-74.587,14.063-56.223,0-105.772-20.45-141.158-55.524ZM1297.4,844.7c-15.419,13.829-27.254,33.005-33.565,57.171h192.388c-3-25.1-11.818-44.4-24.407-58.061-15.854-17.2-38.053-25.678-62.226-25.678C1342.258,818.128,1316.862,827.242,1297.4,844.7Zm332.5,278.946c-19.631-13.907-35.053-38.45-35.053-81.483V623.76h72.25v407.97c0,19.1,3.859,29.465,9.338,34.792,4.742,4.61,11.665,5.687,18.133,5.687,1.63,0,3.669,0,4.538-.041a39.122,39.122,0,0,0,4.668-.462l14.339-2.378v67.416l-10.381,1.712c-2.222.367-4.905.744-8.292,1.05-3.529.319-7.29.53-11.159.53-16.071,0-38.946-2.629-58.38-16.394Zm170.117-35.24c-35.295-35.244-57-84.252-57-140.1,0-54.882,21.741-103.047,57.076-137.669,35.787-35.067,85.448-56.159,140.489-56.159,55.079,0,104.943,21.112,140.893,56.2,35.478,34.636,57.375,82.781,57.375,137.625,0,55.816-21.846,104.783-57.256,140.01-35.971,35.787-85.879,57.293-141.012,57.293C1885.482,1145.6,1835.8,1124.128,1800.021,1088.4Zm52.371-230.176c-22.111,22.559-35.733,54.08-35.733,90.071,0,37.255,13.551,69.4,35.56,92.31,22.4,23.31,53.655,37.163,88.362,37.163,34.771,0,66.241-13.89,88.807-37.258,22.131-22.916,35.811-55.028,35.811-92.214,0-35.923-13.754-67.406-35.988-89.976a124.91,124.91,0,0,0-176.819-.1Zm410.372,279.031h-59.885V623.76h72.247V896.306h38.257L2414.5,767.547l3.717-4.732h89.045L2491.123,782.9,2374.05,928.656l130.182,189.239,13.32,19.363h-87.319l-3.679-5.506L2313.519,962.745h-38.393v174.513Zm288.855-24.068c-22.42-19.285-37.037-46.763-37.037-82.152,0-64.05,40.373-97.806,89.976-115.5C2651.467,898.807,2706.389,897,2740.8,897h8.584c-.411-26.636-7.147-44.816-18.29-56.441-12.983-13.537-32.778-18.955-55.989-18.955a151.99,151.99,0,0,0-48.009,7.962,165.027,165.027,0,0,0-44.687,23l-10.894,7.935-6.923-11.556-21.666-36.154-5.384-8.982,7.99-6.76c15.235-12.881,36.2-23.616,59.576-31.062a243.954,243.954,0,0,1,72.794-11.516c45.849,0,81.748,13,106.43,38.206,24.465,24.985,37.32,61.356,37.32,108.343v236.239H2751.5v-39.51a144.851,144.851,0,0,1-28.3,24.57,139.447,139.447,0,0,1-77.448,23.283c-34.493,0-69.152-10.921-94.134-32.411Zm89.748-143.675c-29.839,8.8-53.839,25.491-53.839,57.348a51.118,51.118,0,0,0,18.483,38.95c11.01,9.3,27.033,15.436,48.128,15.436,27.363,0,49.586-13.122,65.582-32.553,19.23-23.354,29.683-55.632,29.683-85.8v-3.628h-7.9C2714.926,959.269,2674.42,959.765,2641.368,969.515Z" transform="translate(4616.87 4251.632)" fill="#5a5c69"/>
    <path id="Path_9" data-name="Path 9" d="M8982.489,535.289c.414-.255.825-.489,1.244-.751-18.851-56.329,59.534-151.515,204.959-310.708q-176.347,21.64-272.821,89.527Q8925.268,451.74,8982.489,535.289Z" transform="translate(-1270.3 4515.707)" fill="#189cc2" fill-rule="evenodd"/>
    <path id="Path_10" data-name="Path 10" d="M8982.489,657.907c.414-.255.825-.489,1.244-.751a51.237,51.237,0,0,1-1.569-5.85q-27.538-104.635-22.312-241.777a371.5,371.5,0,0,0-43.981,26.439q9.393,138.388,66.618,221.938Z" transform="translate(-1270.3 4393.089)" fill="#0a7fa7" fill-rule="evenodd"/>
    <path id="Path_11" data-name="Path 11" d="M8306.118,468.243c31.063,15.894,56.787,24.1,79.587,20.168Q8155.89,398.328,8194.918,0c-55.038,10.819-99.712,35.994-130.824,77.95-27.1,36.545-18.405,83.009,3.818,145,2.979,8.323,6.566,53.129-11.995,69.774-6.821,6.115-17.777,1.277-27.254-4.905q-48.866-27.755-81.221.544-89.182-14.971-129.191-16.353c38.05,11.988,82.009,24.3,131.372,38.7,21.082,6.152,39.167,20.609,53.417,42.517,29.167,44.833,111.815,69.146,191.875,80.678,30.042,4.328,71.577,14.064,111.2,34.34Z" transform="translate(-545.539 4663.502)" fill="#1ba0e1" fill-rule="evenodd"/>
  </g>
</svg>
